<svg width="97" height="90" viewBox="0 0 97 90" fill="none" xmlns="http://www.w3.org/2000/svg">
<mask id="mask0_6959_18" style="mask-type:alpha" maskUnits="userSpaceOnUse" x="4" y="0" width="89" height="90">
<g clip-path="url(#clip0_6959_18)">
<path d="M22.7522 55.1598C22.3188 55.7901 22.4771 56.6532 23.1061 57.0876C23.735 57.5219 24.5962 57.3632 25.0296 56.7329C25.0388 56.7198 25.0476 56.7063 25.0562 56.6928C29.8634 49.4006 38.0024 45.0143 46.7233 45.0157C47.487 45.0157 48.1063 44.3951 48.1063 43.6297C48.1063 42.8642 47.487 42.2437 46.7233 42.2437C37.0755 42.2412 28.0709 47.0931 22.7522 55.1598Z" fill="black"/>
<path d="M91.2661 72.7356H82.9683V71.0613C83.0004 62.0819 79.3466 53.4845 72.8642 47.2858C72.3271 46.7415 71.4515 46.7366 70.9084 47.2747C70.3652 47.813 70.3604 48.6905 70.8973 49.2349C70.9136 49.2513 70.9302 49.2674 70.9473 49.283C76.8846 54.9613 80.2312 62.8364 80.2021 71.0613V72.7356H16.5854V71.0613C16.6038 54.3879 30.0862 40.8759 46.7232 40.8575H50.0645C52.6336 40.8558 55.1922 41.1818 57.6792 41.8277C58.4109 42.0472 59.1816 41.6307 59.4006 40.8974C59.6197 40.164 59.2041 39.3917 58.4723 39.1721C58.4388 39.1621 58.4047 39.1533 58.3705 39.1458C56.4604 38.652 54.5099 38.3315 52.5426 38.1881V33.9275C52.5426 33.1621 51.9234 32.5415 51.1597 32.5415H45.6278C44.864 32.5415 44.2448 33.1621 44.2448 33.9275V38.1881C27.0947 39.5044 13.842 53.8232 13.8193 71.0613V72.7356H5.52165C4.7579 72.7356 4.13867 73.3562 4.13867 74.1216C4.13867 74.887 4.7579 75.5076 5.52165 75.5076H91.2661C92.0299 75.5076 92.6491 74.887 92.6491 74.1216C92.6491 73.3562 92.0299 72.7356 91.2661 72.7356ZM47.0109 35.3135H49.7769V38.0855H47.0109V35.3135Z" fill="black"/>
<path d="M62.6849 31.4925C63.9724 32.6443 64.9889 33.5535 64.9889 35.4093C64.9889 37.2652 63.9724 38.1744 62.6849 39.3331C60.7276 40.7039 59.531 42.9204 59.457 45.3123C59.457 46.0778 60.0763 46.6983 60.84 46.6983C61.6038 46.6983 62.223 46.0778 62.223 45.3123C62.223 43.4565 63.2395 42.5473 64.527 41.3955C66.4855 40.0227 67.6821 37.8035 67.7549 35.4093C67.6821 33.0155 66.4855 30.7969 64.527 29.4246C63.2395 28.2728 62.223 27.3636 62.223 25.5091C62.223 23.6546 63.2395 22.7468 64.527 21.595C66.4855 20.2241 67.6823 18.0062 67.7549 15.6131C67.7549 14.8476 67.1357 14.2271 66.3719 14.2271C65.6082 14.2271 64.9889 14.8476 64.9889 15.6131C64.9889 17.4661 63.9724 18.374 62.6849 19.5257C60.7261 20.8972 59.5293 23.1157 59.457 25.5091C59.53 27.9024 60.7266 30.1207 62.6849 31.4925Z" fill="black"/>
<path d="M70.9837 31.4925C72.2713 32.6443 73.2878 33.5535 73.2878 35.4093C73.2878 37.2652 72.2713 38.1813 70.9837 39.3276C69.0249 40.6995 67.8281 42.9184 67.7559 45.3123C67.7559 46.0778 68.3751 46.6983 69.1388 46.6983C69.9026 46.6983 70.5218 46.0778 70.5218 45.3123C70.5218 43.4565 71.5383 42.5473 72.8258 41.3955C74.7843 40.0227 75.9809 37.8035 76.0537 35.4093C75.9809 33.0155 74.7843 30.7969 72.8258 29.4246C71.5383 28.2728 70.5218 27.3636 70.5218 25.5091C70.5218 23.6546 71.5383 22.7468 72.8258 21.595C74.7843 20.2241 75.9811 18.0062 76.0537 15.6131C76.0537 14.8476 75.4345 14.2271 74.6707 14.2271C73.907 14.2271 73.2878 14.8476 73.2878 15.6131C73.2878 17.4661 72.2713 18.374 70.9837 19.5257C69.0249 20.8972 67.8281 23.1157 67.7559 25.5091C67.8288 27.9024 69.0254 30.1207 70.9837 31.4925Z" fill="black"/>
<path d="M79.2806 31.4925C80.5681 32.6443 81.5846 33.5535 81.5846 35.4093C81.5846 37.2652 80.5681 38.1813 79.2806 39.3276C77.3218 40.6995 76.125 42.9184 76.0527 45.3123C76.0527 46.0778 76.672 46.6983 77.4357 46.6983C78.1995 46.6983 78.8187 46.0778 78.8187 45.3123C78.8187 43.4565 79.8352 42.5473 81.1227 41.3955C83.0812 40.0227 84.2778 37.8035 84.3506 35.4093C84.2778 33.0155 83.0812 30.7969 81.1227 29.4246C79.8352 28.2728 78.8187 27.3636 78.8187 25.5091C78.8187 23.6546 79.8352 22.7468 81.1227 21.595C83.0812 20.2241 84.278 18.0062 84.3506 15.6131C84.3506 14.8476 83.7314 14.2271 82.9676 14.2271C82.2039 14.2271 81.5846 14.8476 81.5846 15.6131C81.5846 17.4661 80.5681 18.374 79.2806 19.5257C77.3218 20.8972 76.125 23.1157 76.0527 25.5091C76.1257 27.9024 77.3223 30.1207 79.2806 31.4925Z" fill="black"/>
</g>
</mask>
<g mask="url(#mask0_6959_18)">
<rect x="-12.1387" y="-12.7393" width="128.188" height="106.037" fill="#BC9060"/>
</g>
<defs>
<clipPath id="clip0_6959_18">
<rect width="88.5104" height="88.7042" fill="white" transform="translate(4.13867 0.515137)"/>
</clipPath>
</defs>
</svg>
