<svg width="25" height="24" viewBox="0 0 25 24" fill="none" xmlns="http://www.w3.org/2000/svg">
<mask id="mask0_6959_65" style="mask-type:alpha" maskUnits="userSpaceOnUse" x="0" y="0" width="25" height="24">
<g clip-path="url(#clip0_6959_65)">
<path d="M19.3098 14.643C18.8308 14.1431 18.2529 13.8758 17.6406 13.8758C17.0331 13.8758 16.4504 14.1382 15.9516 14.6381L14.391 16.1971C14.2626 16.1278 14.1342 16.0635 14.0107 15.9991C13.8329 15.91 13.665 15.8259 13.5218 15.7368C12.06 14.8063 10.7315 13.5937 9.45732 12.0248C8.84 11.2428 8.42516 10.5845 8.1239 9.91633C8.52887 9.54512 8.9042 9.15907 9.26965 8.78786C9.40793 8.64928 9.54621 8.50575 9.68449 8.36717C10.7216 7.32779 10.7216 5.98156 9.68449 4.94218L8.33626 3.591C8.18316 3.43757 8.02513 3.27919 7.87697 3.12081C7.58066 2.81394 7.26953 2.49718 6.94852 2.20022C6.46948 1.72508 5.8966 1.47266 5.29409 1.47266C4.69159 1.47266 4.10883 1.72508 3.61497 2.20022C3.61004 2.20517 3.61004 2.20517 3.6051 2.21012L1.92598 3.90776C1.29384 4.54128 0.933323 5.31339 0.854306 6.20923C0.73578 7.65445 1.1605 9.00069 1.48644 9.88168C2.2865 12.0446 3.48163 14.0491 5.26446 16.1971C7.42756 18.7856 10.0302 20.8297 13.0032 22.27C14.1391 22.8095 15.6552 23.448 17.3492 23.5569C17.4529 23.5618 17.5615 23.5668 17.6603 23.5668C18.8011 23.5668 19.7592 23.156 20.5099 22.3393C20.5148 22.3294 20.5247 22.3245 20.5296 22.3146C20.7864 22.0028 21.0827 21.7206 21.3939 21.4187C21.6062 21.2158 21.8235 21.003 22.0359 20.7803C22.5248 20.2705 22.7816 19.6765 22.7816 19.0678C22.7816 18.454 22.5199 17.8651 22.0211 17.3701L19.3098 14.643ZM21.0778 19.8547C21.0729 19.8547 21.0729 19.8597 21.0778 19.8547C20.8852 20.0626 20.6877 20.2507 20.4753 20.4585C20.1543 20.7654 19.8283 21.0871 19.5222 21.4484C19.0234 21.983 18.4357 22.2354 17.6652 22.2354C17.5912 22.2354 17.5122 22.2354 17.4381 22.2304C15.9713 22.1364 14.6083 21.5623 13.586 21.0723C10.7907 19.7161 8.33626 17.7908 6.29663 15.3508C4.61257 13.3166 3.48657 11.4358 2.74085 9.41644C2.28156 8.18404 2.11364 7.22386 2.18772 6.31812C2.23711 5.73904 2.45935 5.25895 2.86925 4.84815L4.55331 3.1604C4.7953 2.93273 5.0521 2.80899 5.30397 2.80899C5.6151 2.80899 5.86697 2.99707 6.025 3.15545C6.02994 3.1604 6.03488 3.16535 6.03982 3.1703C6.34107 3.45242 6.62751 3.74443 6.92876 4.05624C7.08186 4.21462 7.2399 4.373 7.39793 4.53633L8.74616 5.88752C9.26965 6.41215 9.26965 6.8972 8.74616 7.42183C8.60294 7.56536 8.46466 7.7089 8.32144 7.84748C7.9066 8.27313 7.51152 8.66908 7.08186 9.05513C7.07198 9.06503 7.06211 9.06998 7.05717 9.07988C6.63245 9.50553 6.71147 9.92128 6.80036 10.2034C6.8053 10.2182 6.81024 10.2331 6.81518 10.2479C7.16582 11.0992 7.65967 11.901 8.41034 12.8563L8.41528 12.8612C9.77833 14.544 11.2155 15.8556 12.8007 16.8603C13.0032 16.989 13.2106 17.093 13.4082 17.1919C13.586 17.281 13.7539 17.3652 13.8971 17.4543C13.9169 17.4642 13.9366 17.479 13.9564 17.4889C14.1243 17.573 14.2823 17.6126 14.4453 17.6126C14.8552 17.6126 15.112 17.3553 15.196 17.2711L16.8849 15.5784C17.0529 15.4102 17.3195 15.2072 17.6307 15.2072C17.9369 15.2072 18.1887 15.4003 18.3418 15.5685C18.3468 15.5735 18.3468 15.5735 18.3517 15.5784L21.0729 18.3056C21.5815 18.8104 21.5815 19.3301 21.0778 19.8547Z" fill="black"/>
<path d="M13.4628 5.69463C14.7568 5.9124 15.9321 6.52612 16.8705 7.46651C17.8088 8.40689 18.4162 9.58485 18.6385 10.8816C18.6928 11.2083 18.9743 11.4359 19.2953 11.4359C19.3348 11.4359 19.3694 11.431 19.4089 11.426C19.7744 11.3666 20.0163 11.0202 19.9571 10.6539C19.6904 9.08496 18.9496 7.65459 17.8187 6.52117C16.6877 5.38776 15.2605 4.64535 13.695 4.37809C13.3295 4.31869 12.9887 4.56121 12.9245 4.92252C12.8603 5.28383 13.0974 5.63523 13.4628 5.69463Z" fill="black"/>
<path d="M24.1897 10.4607C23.7501 7.87715 22.5353 5.52619 20.6685 3.65532C18.8017 1.78445 16.4559 0.566894 13.8779 0.126398C13.5174 0.0620554 13.1766 0.309525 13.1124 0.670831C13.0532 1.03709 13.2952 1.3786 13.6606 1.44294C15.962 1.83394 18.0609 2.92776 19.7301 4.5957C21.3994 6.2686 22.4859 8.37209 22.876 10.6785C22.9303 11.0052 23.2118 11.2328 23.5328 11.2328C23.5724 11.2328 23.6069 11.2279 23.6464 11.2229C24.0069 11.1685 24.2539 10.822 24.1897 10.4607Z" fill="black"/>
</g>
</mask>
<g mask="url(#mask0_6959_65)">
<rect x="-8.40234" y="-83.0264" width="132.596" height="122.938" fill="white"/>
</g>
<defs>
<clipPath id="clip0_6959_65">
<rect width="23.3993" height="23.4505" fill="white" transform="translate(0.816406 0.116211)"/>
</clipPath>
</defs>
</svg>
